# Wavefront OBJ file automatically generated by Tiled2Unity

# Vertices (Count = 262)
v -19.9499988555908 -2.09999990463257 0
v -22.0499992370605 -2.09999990463257 0
v -22.0499992370605 0 0
v -19.9499988555908 0 0
v -24.1499996185303 -2.09999990463257 0
v -24.1499996185303 0 0
v -26.25 -2.09999990463257 0
v -26.25 0 0
v -28.3499984741211 -2.09999990463257 0
v -28.3499984741211 0 0
v -30.4499988555908 -2.09999990463257 0
v -30.4499988555908 0 0
v -32.5499992370605 -2.09999990463257 0
v -32.5499992370605 0 0
v -34.6499977111816 -2.09999990463257 0
v -34.6499977111816 0 0
v -36.75 -2.09999990463257 0
v -36.75 0 0
v -38.8499984741211 -2.09999990463257 0
v -38.8499984741211 0 0
v -40.9500007629395 -2.09999990463257 0
v -40.9500007629395 0 0
v -74.5499954223633 -2.09999990463257 0
v -76.6500015258789 -2.09999990463257 0
v -76.6500015258789 0 0
v -74.5499954223633 0 0
v -78.75 -2.09999990463257 0
v -78.75 0 0
v -19.9499988555908 -4.19999980926514 0
v -22.0499992370605 -4.19999980926514 0
v -24.1499996185303 -4.19999980926514 0
v -26.25 -4.19999980926514 0
v -28.3499984741211 -4.19999980926514 0
v -30.4499988555908 -4.19999980926514 0
v -32.5499992370605 -4.19999980926514 0
v -34.6499977111816 -4.19999980926514 0
v -36.75 -4.19999980926514 0
v -38.8499984741211 -4.19999980926514 0
v -40.9500007629395 -4.19999980926514 0
v -74.5499954223633 -4.19999980926514 0
v -76.6500015258789 -4.19999980926514 0
v -78.75 -4.19999980926514 0
v -30.4499988555908 -6.29999971389771 0
v -32.5499992370605 -6.29999971389771 0
v -34.6499977111816 -6.29999971389771 0
v -36.75 -6.29999971389771 0
v -38.8499984741211 -6.29999971389771 0
v -40.9500007629395 -6.29999971389771 0
v -74.5499954223633 -6.29999971389771 0
v -76.6500015258789 -6.29999971389771 0
v -78.75 -6.29999971389771 0
v 0 -7.34999990463257 0
v -2.09999990463257 -7.34999990463257 0
v -2.09999990463257 -5.25 0
v 0 -5.25 0
v -4.19999980926514 -7.34999990463257 0
v -4.19999980926514 -5.25 0
v -6.29999971389771 -7.34999990463257 0
v -6.29999971389771 -5.25 0
v -8.39999961853027 -7.34999990463257 0
v -8.39999961853027 -5.25 0
v -32.5499992370605 -8.39999961853027 0
v -34.6499977111816 -8.39999961853027 0
v -36.75 -8.39999961853027 0
v -38.8499984741211 -8.39999961853027 0
v -40.9500007629395 -8.39999961853027 0
v -74.5499954223633 -8.39999961853027 0
v -76.6500015258789 -8.39999961853027 0
v -78.75 -8.39999961853027 0
v 0 -9.44999980926514 0
v -2.09999990463257 -9.44999980926514 0
v -4.19999980926514 -9.44999980926514 0
v -6.29999971389771 -9.44999980926514 0
v -8.39999961853027 -9.44999980926514 0
v -10.5 -9.44999980926514 0
v -10.5 -7.34999990463257 0
v -12.5999994277954 -9.44999980926514 0
v -12.5999994277954 -7.34999990463257 0
v -24.1499996185303 -10.5 0
v -26.25 -10.5 0
v -26.25 -8.39999961853027 0
v -24.1499996185303 -8.39999961853027 0
v -28.3499984741211 -10.5 0
v -28.3499984741211 -8.39999961853027 0
v -30.4499988555908 -10.5 0
v -30.4499988555908 -8.39999961853027 0
v -34.6499977111816 -10.5 0
v -36.75 -10.5 0
v -38.8499984741211 -10.5 0
v -40.9500007629395 -10.5 0
v -76.6500015258789 -10.5 0
v -78.75 -10.5 0
v 0 -11.5500001907349 0
v -2.09999990463257 -11.5500001907349 0
v -4.19999980926514 -11.5500001907349 0
v -6.29999971389771 -11.5500001907349 0
v -8.39999961853027 -11.5500001907349 0
v -24.1499996185303 -12.5999994277954 0
v -26.25 -12.5999994277954 0
v -28.3499984741211 -12.5999994277954 0
v -30.4499988555908 -12.5999994277954 0
v -32.5499992370605 -12.5999994277954 0
v -32.5499992370605 -10.5 0
v -36.75 -12.5999994277954 0
v -38.8499984741211 -12.5999994277954 0
v -40.9500007629395 -12.5999994277954 0
v 0 -13.6499996185303 0
v -2.09999990463257 -13.6499996185303 0
v -4.19999980926514 -13.6499996185303 0
v -6.29999971389771 -13.6499996185303 0
v -8.39999961853027 -13.6499996185303 0
v -24.1499996185303 -14.6999998092651 0
v -26.25 -14.6999998092651 0
v -28.3499984741211 -14.6999998092651 0
v -30.4499988555908 -14.6999998092651 0
v -32.5499992370605 -14.6999998092651 0
v -34.6499977111816 -14.6999998092651 0
v -34.6499977111816 -12.5999994277954 0
v 0 -15.75 0
v -2.09999990463257 -15.75 0
v -4.19999980926514 -15.75 0
v -6.29999971389771 -15.75 0
v -8.39999961853027 -15.75 0
v -14.6999998092651 -16.7999992370605 0
v -16.7999992370605 -16.7999992370605 0
v -16.7999992370605 -14.6999998092651 0
v -14.6999998092651 -14.6999998092651 0
v -18.8999996185303 -16.7999992370605 0
v -18.8999996185303 -14.6999998092651 0
v -21 -16.7999992370605 0
v -21 -14.6999998092651 0
v -23.1000003814697 -16.7999992370605 0
v -23.1000003814697 -14.6999998092651 0
v -24.1499996185303 -16.7999992370605 0
v -26.25 -16.7999992370605 0
v -28.3499984741211 -16.7999992370605 0
v -30.4499988555908 -16.7999992370605 0
v -32.5499992370605 -16.7999992370605 0
v -34.6499977111816 -16.7999992370605 0
v -36.75 -16.7999992370605 0
v -36.75 -14.6999998092651 0
v -72.4499969482422 -16.7999992370605 0
v -74.5499954223633 -16.7999992370605 0
v -74.5499954223633 -14.6999998092651 0
v -72.4499969482422 -14.6999998092651 0
v -76.6500015258789 -16.7999992370605 0
v -76.6500015258789 -14.6999998092651 0
v -78.75 -16.7999992370605 0
v -78.75 -14.6999998092651 0
v 0 -17.8500003814697 0
v -2.09999990463257 -17.8500003814697 0
v -4.19999980926514 -17.8500003814697 0
v -6.29999971389771 -17.8500003814697 0
v -8.39999961853027 -17.8500003814697 0
v -8.39999961853027 -18.8999996185303 0
v -10.5 -18.8999996185303 0
v -10.5 -16.7999992370605 0
v -8.39999961853027 -16.7999992370605 0
v -12.5999994277954 -18.8999996185303 0
v -12.5999994277954 -16.7999992370605 0
v -14.6999998092651 -18.8999996185303 0
v -16.7999992370605 -18.8999996185303 0
v -18.8999996185303 -18.8999996185303 0
v -21 -18.8999996185303 0
v -23.1000003814697 -18.8999996185303 0
v -22.0499992370605 -18.8999996185303 0
v -24.1499996185303 -18.8999996185303 0
v -22.0499992370605 -16.7999992370605 0
v -26.25 -18.8999996185303 0
v -28.3499984741211 -18.8999996185303 0
v -30.4499988555908 -18.8999996185303 0
v -32.5499992370605 -18.8999996185303 0
v -34.6499977111816 -18.8999996185303 0
v -36.75 -18.8999996185303 0
v -38.8499984741211 -18.8999996185303 0
v -38.8499984741211 -16.7999992370605 0
v -40.9500007629395 -18.8999996185303 0
v -40.9500007629395 -16.7999992370605 0
v -43.0499992370605 -18.8999996185303 0
v -43.0499992370605 -16.7999992370605 0
v -45.1499977111816 -18.8999996185303 0
v -45.1499977111816 -16.7999992370605 0
v -47.25 -18.8999996185303 0
v -47.25 -16.7999992370605 0
v -49.3499984741211 -18.8999996185303 0
v -49.3499984741211 -16.7999992370605 0
v -51.4499969482422 -18.8999996185303 0
v -51.4499969482422 -16.7999992370605 0
v -53.5499992370605 -18.8999996185303 0
v -53.5499992370605 -16.7999992370605 0
v -55.6499977111816 -18.8999996185303 0
v -55.6499977111816 -16.7999992370605 0
v -57.75 -18.8999996185303 0
v -57.75 -16.7999992370605 0
v -59.8499984741211 -18.8999996185303 0
v -59.8499984741211 -16.7999992370605 0
v -61.9499969482422 -18.8999996185303 0
v -61.9499969482422 -16.7999992370605 0
v -64.0499954223633 -18.8999996185303 0
v -64.0499954223633 -16.7999992370605 0
v -66.1500015258789 -18.8999996185303 0
v -66.1500015258789 -16.7999992370605 0
v -68.25 -18.8999996185303 0
v -68.25 -16.7999992370605 0
v -70.3499984741211 -18.8999996185303 0
v -70.3499984741211 -16.7999992370605 0
v -72.4499969482422 -18.8999996185303 0
v -74.5499954223633 -18.8999996185303 0
v -76.6500015258789 -18.8999996185303 0
v -78.75 -18.8999996185303 0
v 0 -19.9499988555908 0
v -2.09999990463257 -19.9499988555908 0
v -4.19999980926514 -19.9499988555908 0
v -6.29999971389771 -19.9499988555908 0
v -8.39999961853027 -19.9499988555908 0
v 0 -21 0
v -2.09999990463257 -21 0
v -2.09999990463257 -18.8999996185303 0
v 0 -18.8999996185303 0
v -4.19999980926514 -21 0
v -4.19999980926514 -18.8999996185303 0
v -6.29999971389771 -21 0
v -6.29999971389771 -18.8999996185303 0
v -8.39999961853027 -21 0
v -10.5 -21 0
v -12.5999994277954 -21 0
v -14.6999998092651 -21 0
v -16.7999992370605 -21 0
v -18.8999996185303 -21 0
v -21 -21 0
v -23.1000003814697 -21 0
v -25.1999988555908 -21 0
v -25.1999988555908 -18.8999996185303 0
v -24.1499996185303 -21 0
v -26.25 -21 0
v -27.2999992370605 -21 0
v -27.2999992370605 -18.8999996185303 0
v -28.3499984741211 -21 0
v -30.4499988555908 -21 0
v -32.5499992370605 -21 0
v -34.6499977111816 -21 0
v -36.75 -21 0
v -38.8499984741211 -21 0
v -40.9500007629395 -21 0
v -43.0499992370605 -21 0
v -45.1499977111816 -21 0
v -47.25 -21 0
v -49.3499984741211 -21 0
v -51.4499969482422 -21 0
v -53.5499992370605 -21 0
v -55.6499977111816 -21 0
v -57.75 -21 0
v -59.8499984741211 -21 0
v -61.9499969482422 -21 0
v -64.0499954223633 -21 0
v -66.1500015258789 -21 0
v -68.25 -21 0
v -70.3499984741211 -21 0
v -72.4499969482422 -21 0
v -74.5499954223633 -21 0
v -76.6500015258789 -21 0
v -78.75 -21 0

# Texture Coorindates (Count = 72)
vt 0.0723877 0.6485596
vt 0.1405029 0.6485596
vt 0.1405029 0.7166748
vt 0.0723877 0.7166748
vt 0.0723877 0.7872314
vt 0.07214355 0.7188721
vt 0.1405029 0.7186279
vt 0.1407471 0.7869873
vt 0.2110596 0.7872314
vt 0.1424561 0.7872314
vt 0.1424561 0.7186279
vt 0.2110596 0.7186279
vt 0.1407471 0.7872314
vt 0.07214355 0.7872314
vt 0.07214355 0.7186279
vt 0.1407471 0.7186279
vt 0.2833252 0.7872314
vt 0.2830811 0.7188721
vt 0.3514404 0.7186279
vt 0.3516846 0.7869873
vt 0.2130127 0.7872314
vt 0.2127686 0.7188721
vt 0.2811279 0.7186279
vt 0.2813721 0.7869873
vt 0.0723877 0.7188721
vt 0.1405029 0.7188721
vt 0.1405029 0.7869873
vt 0.0723877 0.7869873
vt 0.4239502 0.7188721
vt 0.4920654 0.7188721
vt 0.4920654 0.7869873
vt 0.4239502 0.7869873
vt 0.4923096 0.7872314
vt 0.4237061 0.7872314
vt 0.4237061 0.7186279
vt 0.4923096 0.7186279
vt 0.4219971 0.7872314
vt 0.3533936 0.7872314
vt 0.3533936 0.7186279
vt 0.4219971 0.7186279
vt 0.3536377 0.7188721
vt 0.4217529 0.7188721
vt 0.4217529 0.7869873
vt 0.3536377 0.7869873
vt 0.1427002 0.7188721
vt 0.2108154 0.7188721
vt 0.2108154 0.7869873
vt 0.1427002 0.7869873
vt 0.2130127 0.7188721
vt 0.2811279 0.7188721
vt 0.2811279 0.7869873
vt 0.2130127 0.7869873
vt 0.2130127 0.5782471
vt 0.2811279 0.5782471
vt 0.2811279 0.6463623
vt 0.2130127 0.6463623
vt 0.2833252 0.5782471
vt 0.3514404 0.5782471
vt 0.3514404 0.6463623
vt 0.2833252 0.6463623
vt 0.9161377 0.2266846
vt 0.9842529 0.2266846
vt 0.9842529 0.2947998
vt 0.9161377 0.2947998
vt 0.2833252 0.7188721
vt 0.3514404 0.7188721
vt 0.3514404 0.7869873
vt 0.2833252 0.7869873
vt 0.8458252 0.1563721
vt 0.9139404 0.1563721
vt 0.9139404 0.2244873
vt 0.8458252 0.2244873

# Normal
vn 0 0 -1

# Groups (Count = 1)
g mesh_[01]_[00]
f  1/1/1  2/2/1  3/3/1  4/4/1 
f  2/1/1  5/2/1  6/3/1  3/4/1 
f  5/1/1  7/2/1  8/3/1  6/4/1 
f  7/1/1  9/2/1  10/3/1  8/4/1 
f  9/1/1  11/2/1  12/3/1  10/4/1 
f  11/1/1  13/2/1  14/3/1  12/4/1 
f  13/1/1  15/2/1  16/3/1  14/4/1 
f  15/1/1  17/2/1  18/3/1  16/4/1 
f  17/1/1  19/2/1  20/3/1  18/4/1 
f  19/1/1  21/2/1  22/3/1  20/4/1 
f  23/5/1  24/6/1  25/7/1  26/8/1 
f  24/1/1  27/2/1  28/3/1  25/4/1 
f  29/9/1  30/10/1  2/11/1  1/12/1 
f  30/13/1  31/14/1  5/15/1  2/16/1 
f  31/13/1  32/14/1  7/15/1  5/16/1 
f  32/13/1  33/14/1  9/15/1  7/16/1 
f  33/13/1  34/14/1  11/15/1  9/16/1 
f  34/17/1  35/18/1  13/19/1  11/20/1 
f  35/1/1  36/2/1  15/3/1  13/4/1 
f  36/1/1  37/2/1  17/3/1  15/4/1 
f  37/1/1  38/2/1  19/3/1  17/4/1 
f  38/1/1  39/2/1  21/3/1  19/4/1 
f  40/5/1  41/6/1  24/7/1  23/8/1 
f  41/1/1  42/2/1  27/3/1  24/4/1 
f  43/21/1  44/22/1  35/23/1  34/24/1 
f  44/1/1  45/2/1  36/3/1  35/4/1 
f  45/1/1  46/2/1  37/3/1  36/4/1 
f  46/1/1  47/2/1  38/3/1  37/4/1 
f  47/1/1  48/2/1  39/3/1  38/4/1 
f  49/5/1  50/6/1  41/7/1  40/8/1 
f  50/1/1  51/2/1  42/3/1  41/4/1 
f  52/25/1  53/26/1  54/27/1  55/28/1 
f  53/25/1  56/26/1  57/27/1  54/28/1 
f  56/25/1  58/26/1  59/27/1  57/28/1 
f  58/29/1  60/30/1  61/31/1  59/32/1 
f  62/21/1  63/22/1  45/23/1  44/24/1 
f  63/1/1  64/2/1  46/3/1  45/4/1 
f  64/1/1  65/2/1  47/3/1  46/4/1 
f  65/1/1  66/2/1  48/3/1  47/4/1 
f  67/33/1  68/34/1  50/35/1  49/36/1 
f  68/37/1  69/38/1  51/39/1  50/40/1 
f  70/1/1  71/2/1  53/3/1  52/4/1 
f  71/1/1  72/2/1  56/3/1  53/4/1 
f  72/1/1  73/2/1  58/3/1  56/4/1 
f  73/41/1  74/42/1  60/43/1  58/44/1 
f  74/25/1  75/26/1  76/27/1  60/28/1 
f  75/45/1  77/46/1  78/47/1  76/48/1 
f  79/49/1  80/50/1  81/51/1  82/52/1 
f  80/25/1  83/26/1  84/27/1  81/28/1 
f  83/29/1  85/30/1  86/31/1  84/32/1 
f  87/21/1  88/22/1  64/23/1  63/24/1 
f  88/1/1  89/2/1  65/3/1  64/4/1 
f  89/1/1  90/2/1  66/3/1  65/4/1 
f  91/33/1  92/34/1  69/35/1  68/36/1 
f  93/1/1  94/2/1  71/3/1  70/4/1 
f  94/1/1  95/2/1  72/3/1  71/4/1 
f  95/1/1  96/2/1  73/3/1  72/4/1 
f  96/1/1  97/2/1  74/3/1  73/4/1 
f  98/5/1  99/6/1  80/7/1  79/8/1 
f  99/1/1  100/2/1  83/3/1  80/4/1 
f  100/41/1  101/42/1  85/43/1  83/44/1 
f  101/29/1  102/30/1  103/31/1  85/32/1 
f  104/21/1  105/22/1  89/23/1  88/24/1 
f  105/17/1  106/18/1  90/19/1  89/20/1 
f  107/1/1  108/2/1  94/3/1  93/4/1 
f  108/1/1  109/2/1  95/3/1  94/4/1 
f  109/1/1  110/2/1  96/3/1  95/4/1 
f  110/1/1  111/2/1  97/3/1  96/4/1 
f  112/5/1  113/6/1  99/7/1  98/8/1 
f  113/1/1  114/2/1  100/3/1  99/4/1 
f  114/1/1  115/2/1  101/3/1  100/4/1 
f  115/41/1  116/42/1  102/43/1  101/44/1 
f  116/29/1  117/30/1  118/31/1  102/32/1 
f  119/1/1  120/2/1  108/3/1  107/4/1 
f  120/1/1  121/2/1  109/3/1  108/4/1 
f  121/1/1  122/2/1  110/3/1  109/4/1 
f  122/1/1  123/2/1  111/3/1  110/4/1 
f  124/53/1  125/54/1  126/55/1  127/56/1 
f  125/25/1  128/26/1  129/27/1  126/28/1 
f  128/25/1  130/26/1  131/27/1  129/28/1 
f  130/57/1  132/58/1  133/59/1  131/60/1 
f  134/5/1  135/6/1  113/7/1  112/8/1 
f  135/1/1  136/2/1  114/3/1  113/4/1 
f  136/1/1  137/2/1  115/3/1  114/4/1 
f  137/1/1  138/2/1  116/3/1  115/4/1 
f  138/41/1  139/42/1  117/43/1  116/44/1 
f  139/29/1  140/30/1  141/31/1  117/32/1 
f  142/49/1  143/50/1  144/51/1  145/52/1 
f  143/25/1  146/26/1  147/27/1  144/28/1 
f  146/25/1  148/26/1  149/27/1  147/28/1 
f  150/1/1  151/2/1  120/3/1  119/4/1 
f  151/1/1  152/2/1  121/3/1  120/4/1 
f  152/1/1  153/2/1  122/3/1  121/4/1 
f  153/1/1  154/2/1  123/3/1  122/4/1 
f  155/61/1  156/62/1  157/63/1  158/64/1 
f  156/61/1  159/62/1  160/63/1  157/64/1 
f  159/61/1  161/62/1  124/63/1  160/64/1 
f  161/61/1  162/62/1  125/63/1  124/64/1 
f  162/61/1  163/62/1  128/63/1  125/64/1 
f  163/61/1  164/62/1  130/63/1  128/64/1 
f  164/61/1  165/62/1  132/63/1  130/64/1 
f  166/61/1  167/62/1  134/63/1  168/64/1 
f  167/5/1  169/6/1  135/7/1  134/8/1 
f  169/1/1  170/2/1  136/3/1  135/4/1 
f  170/1/1  171/2/1  137/3/1  136/4/1 
f  171/1/1  172/2/1  138/3/1  137/4/1 
f  172/1/1  173/2/1  139/3/1  138/4/1 
f  173/41/1  174/42/1  140/43/1  139/44/1 
f  174/25/1  175/26/1  176/27/1  140/28/1 
f  175/25/1  177/26/1  178/27/1  176/28/1 
f  177/25/1  179/26/1  180/27/1  178/28/1 
f  179/25/1  181/26/1  182/27/1  180/28/1 
f  181/25/1  183/26/1  184/27/1  182/28/1 
f  183/25/1  185/26/1  186/27/1  184/28/1 
f  185/25/1  187/26/1  188/27/1  186/28/1 
f  187/25/1  189/26/1  190/27/1  188/28/1 
f  189/25/1  191/26/1  192/27/1  190/28/1 
f  191/25/1  193/26/1  194/27/1  192/28/1 
f  193/25/1  195/26/1  196/27/1  194/28/1 
f  195/25/1  197/26/1  198/27/1  196/28/1 
f  197/25/1  199/26/1  200/27/1  198/28/1 
f  199/25/1  201/26/1  202/27/1  200/28/1 
f  201/25/1  203/26/1  204/27/1  202/28/1 
f  203/25/1  205/26/1  206/27/1  204/28/1 
f  205/25/1  207/26/1  142/27/1  206/28/1 
f  207/65/1  208/66/1  143/67/1  142/68/1 
f  208/1/1  209/2/1  146/3/1  143/4/1 
f  209/1/1  210/2/1  148/3/1  146/4/1 
f  211/1/1  212/2/1  151/3/1  150/4/1 
f  212/1/1  213/2/1  152/3/1  151/4/1 
f  213/1/1  214/2/1  153/3/1  152/4/1 
f  214/1/1  215/2/1  154/3/1  153/4/1 
f  216/1/1  217/2/1  218/3/1  219/4/1 
f  217/1/1  220/2/1  221/3/1  218/4/1 
f  220/1/1  222/2/1  223/3/1  221/4/1 
f  222/1/1  224/2/1  155/3/1  223/4/1 
f  224/69/1  225/70/1  156/71/1  155/72/1 
f  225/69/1  226/70/1  159/71/1  156/72/1 
f  226/69/1  227/70/1  161/71/1  159/72/1 
f  227/69/1  228/70/1  162/71/1  161/72/1 
f  228/69/1  229/70/1  163/71/1  162/72/1 
f  229/69/1  230/70/1  164/71/1  163/72/1 
f  230/69/1  231/70/1  165/71/1  164/72/1 
f  231/69/1  232/70/1  233/71/1  165/72/1 
f  234/21/1  235/22/1  169/23/1  167/24/1 
f  232/69/1  236/70/1  237/71/1  233/72/1 
f  235/13/1  238/14/1  170/15/1  169/16/1 
f  238/1/1  239/2/1  171/3/1  170/4/1 
f  239/1/1  240/2/1  172/3/1  171/4/1 
f  240/1/1  241/2/1  173/3/1  172/4/1 
f  241/1/1  242/2/1  174/3/1  173/4/1 
f  242/1/1  243/2/1  175/3/1  174/4/1 
f  243/1/1  244/2/1  177/3/1  175/4/1 
f  244/1/1  245/2/1  179/3/1  177/4/1 
f  245/1/1  246/2/1  181/3/1  179/4/1 
f  246/1/1  247/2/1  183/3/1  181/4/1 
f  247/1/1  248/2/1  185/3/1  183/4/1 
f  248/1/1  249/2/1  187/3/1  185/4/1 
f  249/1/1  250/2/1  189/3/1  187/4/1 
f  250/1/1  251/2/1  191/3/1  189/4/1 
f  251/1/1  252/2/1  193/3/1  191/4/1 
f  252/1/1  253/2/1  195/3/1  193/4/1 
f  253/1/1  254/2/1  197/3/1  195/4/1 
f  254/1/1  255/2/1  199/3/1  197/4/1 
f  255/1/1  256/2/1  201/3/1  199/4/1 
f  256/1/1  257/2/1  203/3/1  201/4/1 
f  257/1/1  258/2/1  205/3/1  203/4/1 
f  258/1/1  259/2/1  207/3/1  205/4/1 
f  259/1/1  260/2/1  208/3/1  207/4/1 
f  260/1/1  261/2/1  209/3/1  208/4/1 
f  261/1/1  262/2/1  210/3/1  209/4/1 
