# Wavefront OBJ file automatically generated by Tiled2Unity

# Vertices (Count = 110)
v -2.09999990463257 -10.5 0
v -4.19999980926514 -10.5 0
v -4.19999980926514 -8.39999961853027 0
v -2.09999990463257 -8.39999961853027 0
v 0 -12.5999994277954 0
v -2.09999990463257 -12.5999994277954 0
v 0 -10.5 0
v -4.19999980926514 -12.5999994277954 0
v 0 -14.6999998092651 0
v -2.09999990463257 -14.6999998092651 0
v -4.19999980926514 -14.6999998092651 0
v -6.29999971389771 -14.6999998092651 0
v -6.29999971389771 -12.5999994277954 0
v 0 -16.7999992370605 0
v -2.09999990463257 -16.7999992370605 0
v -4.19999980926514 -16.7999992370605 0
v -6.29999971389771 -16.7999992370605 0
v -8.39999961853027 -16.7999992370605 0
v -8.39999961853027 -14.6999998092651 0
v -30.4499988555908 -16.7999992370605 0
v -32.5499992370605 -16.7999992370605 0
v -32.5499992370605 -14.6999998092651 0
v -30.4499988555908 -14.6999998092651 0
v 0 -18.8999996185303 0
v -2.09999990463257 -18.8999996185303 0
v -4.19999980926514 -18.8999996185303 0
v -6.29999971389771 -18.8999996185303 0
v -8.39999961853027 -18.8999996185303 0
v -10.5 -18.8999996185303 0
v -10.5 -16.7999992370605 0
v -13.6499996185303 -18.8999996185303 0
v -15.75 -18.8999996185303 0
v -15.75 -16.7999992370605 0
v -13.6499996185303 -16.7999992370605 0
v -17.8500003814697 -18.8999996185303 0
v -17.8500003814697 -16.7999992370605 0
v -19.9499988555908 -18.8999996185303 0
v -19.9499988555908 -16.7999992370605 0
v -22.0499992370605 -18.8999996185303 0
v -22.0499992370605 -16.7999992370605 0
v -24.1499996185303 -18.8999996185303 0
v -24.1499996185303 -16.7999992370605 0
v -26.25 -18.8999996185303 0
v -26.25 -16.7999992370605 0
v -28.3499984741211 -18.8999996185303 0
v -30.4499988555908 -18.8999996185303 0
v -28.3499984741211 -16.7999992370605 0
v -32.5499992370605 -18.8999996185303 0
v -34.6499977111816 -18.8999996185303 0
v -34.6499977111816 -16.7999992370605 0
v -36.75 -18.8999996185303 0
v -38.8499984741211 -18.8999996185303 0
v -38.8499984741211 -16.7999992370605 0
v -36.75 -16.7999992370605 0
v -40.9500007629395 -18.8999996185303 0
v -40.9500007629395 -16.7999992370605 0
v -43.0499992370605 -18.8999996185303 0
v -43.0499992370605 -16.7999992370605 0
v -45.1499977111816 -18.8999996185303 0
v -45.1499977111816 -16.7999992370605 0
v -47.25 -18.8999996185303 0
v -47.25 -16.7999992370605 0
v -50.3999977111816 -18.8999996185303 0
v -52.5 -18.8999996185303 0
v -52.5 -16.7999992370605 0
v -50.3999977111816 -16.7999992370605 0
v 0 -21 0
v -2.09999990463257 -21 0
v -4.19999980926514 -21 0
v -6.29999971389771 -21 0
v -8.39999961853027 -21 0
v -10.5 -21 0
v -12.5999994277954 -21 0
v -12.5999994277954 -18.8999996185303 0
v -14.6999998092651 -21 0
v -14.6999998092651 -18.8999996185303 0
v -16.7999992370605 -21 0
v -16.7999992370605 -18.8999996185303 0
v -18.8999996185303 -21 0
v -18.8999996185303 -18.8999996185303 0
v -21 -21 0
v -21 -18.8999996185303 0
v -23.1000003814697 -21 0
v -23.1000003814697 -18.8999996185303 0
v -25.1999988555908 -21 0
v -25.1999988555908 -18.8999996185303 0
v -27.2999992370605 -21 0
v -27.2999992370605 -18.8999996185303 0
v -29.3999996185303 -21 0
v -29.3999996185303 -18.8999996185303 0
v -31.5 -21 0
v -31.5 -18.8999996185303 0
v -33.5999984741211 -21 0
v -33.5999984741211 -18.8999996185303 0
v -35.7000007629395 -21 0
v -35.7000007629395 -18.8999996185303 0
v -37.7999992370605 -21 0
v -37.7999992370605 -18.8999996185303 0
v -39.8999977111816 -21 0
v -39.8999977111816 -18.8999996185303 0
v -42 -21 0
v -42 -18.8999996185303 0
v -44.0999984741211 -21 0
v -44.0999984741211 -18.8999996185303 0
v -46.2000007629395 -21 0
v -46.2000007629395 -18.8999996185303 0
v -48.2999992370605 -21 0
v -48.2999992370605 -18.8999996185303 0
v -50.3999977111816 -21 0
v -52.5 -21 0

# Texture Coorindates (Count = 72)
vt 0.7052002 0.2969971
vt 0.7733154 0.2969971
vt 0.7733154 0.3651123
vt 0.7052002 0.3651123
vt 0.5645752 0.1563721
vt 0.6326904 0.1563721
vt 0.6326904 0.2244873
vt 0.5645752 0.2244873
vt 0.6348877 0.2969971
vt 0.7030029 0.2969971
vt 0.7030029 0.3651123
vt 0.6348877 0.3651123
vt 0.0723877 0.7188721
vt 0.1405029 0.7188721
vt 0.1405029 0.7869873
vt 0.0723877 0.7869873
vt 0.4239502 0.7188721
vt 0.4920654 0.7188721
vt 0.4920654 0.7869873
vt 0.4239502 0.7869873
vt 0.0723877 0.6485596
vt 0.1405029 0.6485596
vt 0.1405029 0.7166748
vt 0.0723877 0.7166748
vt 0.3536377 0.7188721
vt 0.4217529 0.7188721
vt 0.4217529 0.7869873
vt 0.3536377 0.7869873
vt 0.6348877 0.8594971
vt 0.7030029 0.8594971
vt 0.7030029 0.9276123
vt 0.6348877 0.9276123
vt 0.2130127 0.6485596
vt 0.2811279 0.6485596
vt 0.2811279 0.7166748
vt 0.2130127 0.7166748
vt 0.2833252 0.6485596
vt 0.3514404 0.6485596
vt 0.3514404 0.7166748
vt 0.2833252 0.7166748
vt 0.3536377 0.6485596
vt 0.4217529 0.6485596
vt 0.4217529 0.7166748
vt 0.3536377 0.7166748
vt 0.6348877 0.7891846
vt 0.7030029 0.7891846
vt 0.7030029 0.8572998
vt 0.6348877 0.8572998
vt 0.4942627 0.7891846
vt 0.5623779 0.7891846
vt 0.5623779 0.8572998
vt 0.4942627 0.8572998
vt 0.5645752 0.7891846
vt 0.6326904 0.7891846
vt 0.6326904 0.8572998
vt 0.5645752 0.8572998
vt 0.7755127 0.08605957
vt 0.8436279 0.08605957
vt 0.8436279 0.1541748
vt 0.7755127 0.1541748
vt 0.8458252 0.08605957
vt 0.9139404 0.08605957
vt 0.9139404 0.1541748
vt 0.8458252 0.1541748
vt 0.6348877 0.1563721
vt 0.7030029 0.1563721
vt 0.7030029 0.2244873
vt 0.6348877 0.2244873
vt 0.9161377 0.2266846
vt 0.9842529 0.2266846
vt 0.9842529 0.2947998
vt 0.9161377 0.2947998

# Normal
vn 0 0 -1

# Groups (Count = 1)
g mesh_[00]_[00]
f  1/1/1  2/2/1  3/3/1  4/4/1 
f  5/5/1  6/6/1  1/7/1  7/8/1 
f  6/9/1  8/10/1  2/11/1  1/12/1 
f  9/13/1  10/14/1  6/15/1  5/16/1 
f  10/13/1  11/14/1  8/15/1  6/16/1 
f  11/17/1  12/18/1  13/19/1  8/20/1 
f  14/21/1  15/22/1  10/23/1  9/24/1 
f  15/21/1  16/22/1  11/23/1  10/24/1 
f  16/25/1  17/26/1  12/27/1  11/28/1 
f  17/17/1  18/18/1  19/19/1  12/20/1 
f  20/29/1  21/30/1  22/31/1  23/32/1 
f  24/21/1  25/22/1  15/23/1  14/24/1 
f  25/21/1  26/22/1  16/23/1  15/24/1 
f  26/21/1  27/22/1  17/23/1  16/24/1 
f  27/25/1  28/26/1  18/27/1  17/28/1 
f  28/17/1  29/18/1  30/19/1  18/20/1 
f  31/33/1  32/34/1  33/35/1  34/36/1 
f  32/37/1  35/38/1  36/39/1  33/40/1 
f  35/37/1  37/38/1  38/39/1  36/40/1 
f  37/37/1  39/38/1  40/39/1  38/40/1 
f  39/37/1  41/38/1  42/39/1  40/40/1 
f  41/41/1  43/42/1  44/43/1  42/44/1 
f  45/45/1  46/46/1  20/47/1  47/48/1 
f  46/49/1  48/50/1  21/51/1  20/52/1 
f  48/53/1  49/54/1  50/55/1  21/56/1 
f  51/57/1  52/58/1  53/59/1  54/60/1 
f  52/57/1  55/58/1  56/59/1  53/60/1 
f  55/57/1  57/58/1  58/59/1  56/60/1 
f  57/61/1  59/62/1  60/63/1  58/64/1 
f  59/57/1  61/58/1  62/59/1  60/60/1 
f  63/65/1  64/66/1  65/67/1  66/68/1 
f  67/21/1  68/22/1  25/23/1  24/24/1 
f  68/21/1  69/22/1  26/23/1  25/24/1 
f  69/21/1  70/22/1  27/23/1  26/24/1 
f  70/21/1  71/22/1  28/23/1  27/24/1 
f  71/25/1  72/26/1  29/27/1  28/28/1 
f  72/13/1  73/14/1  74/15/1  29/16/1 
f  73/69/1  75/70/1  76/71/1  74/72/1 
f  75/69/1  77/70/1  78/71/1  76/72/1 
f  77/69/1  79/70/1  80/71/1  78/72/1 
f  79/69/1  81/70/1  82/71/1  80/72/1 
f  81/69/1  83/70/1  84/71/1  82/72/1 
f  83/69/1  85/70/1  86/71/1  84/72/1 
f  85/69/1  87/70/1  88/71/1  86/72/1 
f  87/13/1  89/14/1  90/15/1  88/16/1 
f  89/13/1  91/14/1  92/15/1  90/16/1 
f  91/13/1  93/14/1  94/15/1  92/16/1 
f  93/13/1  95/14/1  96/15/1  94/16/1 
f  95/13/1  97/14/1  98/15/1  96/16/1 
f  97/13/1  99/14/1  100/15/1  98/16/1 
f  99/13/1  101/14/1  102/15/1  100/16/1 
f  101/13/1  103/14/1  104/15/1  102/16/1 
f  103/13/1  105/14/1  106/15/1  104/16/1 
f  105/13/1  107/14/1  108/15/1  106/16/1 
f  107/13/1  109/14/1  63/15/1  108/16/1 
f  109/13/1  110/14/1  64/15/1  63/16/1 
