# Wavefront OBJ file automatically generated by Tiled2Unity

# Vertices (Count = 248)
v -61.9499969482422 -8.39999961853027 0
v -64.0499954223633 -8.39999961853027 0
v -64.0499954223633 -6.29999971389771 0
v -61.9499969482422 -6.29999971389771 0
v -70.3499984741211 -8.39999961853027 0
v -72.4499969482422 -8.39999961853027 0
v -72.4499969482422 -6.29999971389771 0
v -70.3499984741211 -6.29999971389771 0
v -5.25 -14.6999998092651 0
v -7.34999990463257 -14.6999998092651 0
v -7.34999990463257 -12.5999994277954 0
v -5.25 -12.5999994277954 0
v -1.04999995231628 -16.7999992370605 0
v -3.14999985694885 -16.7999992370605 0
v -3.14999985694885 -14.6999998092651 0
v -1.04999995231628 -14.6999998092651 0
v -5.25 -16.7999992370605 0
v -7.34999990463257 -16.7999992370605 0
v -45.1499977111816 -2.09999990463257 0
v -47.25 -2.09999990463257 0
v -47.25 0 0
v -45.1499977111816 0 0
v -49.3499984741211 -2.09999990463257 0
v -49.3499984741211 0 0
v -51.4499969482422 -2.09999990463257 0
v -51.4499969482422 0 0
v -53.5499992370605 -2.09999990463257 0
v -53.5499992370605 0 0
v -55.6499977111816 -2.09999990463257 0
v -55.6499977111816 0 0
v -57.75 -2.09999990463257 0
v -57.75 0 0
v -59.8499984741211 -2.09999990463257 0
v -59.8499984741211 0 0
v -61.9499969482422 -2.09999990463257 0
v -61.9499969482422 0 0
v -64.0499954223633 -2.09999990463257 0
v -64.0499954223633 0 0
v -66.1500015258789 -2.09999990463257 0
v -66.1500015258789 0 0
v -68.25 -2.09999990463257 0
v -68.25 0 0
v -70.3499984741211 -2.09999990463257 0
v -70.3499984741211 0 0
v -72.4499969482422 -2.09999990463257 0
v -72.4499969482422 0 0
v -74.5499954223633 -2.09999990463257 0
v -74.5499954223633 0 0
v -76.6500015258789 -2.09999990463257 0
v -76.6500015258789 0 0
v -78.75 -2.09999990463257 0
v -78.75 0 0
v -45.1499977111816 -4.19999980926514 0
v -47.25 -4.19999980926514 0
v -49.3499984741211 -4.19999980926514 0
v -51.4499969482422 -4.19999980926514 0
v -53.5499992370605 -4.19999980926514 0
v -55.6499977111816 -4.19999980926514 0
v -57.75 -4.19999980926514 0
v -45.1499977111816 -6.29999971389771 0
v -47.25 -6.29999971389771 0
v -49.3499984741211 -6.29999971389771 0
v -51.4499969482422 -6.29999971389771 0
v -53.5499992370605 -6.29999971389771 0
v -55.6499977111816 -6.29999971389771 0
v -45.1499977111816 -8.39999961853027 0
v -47.25 -8.39999961853027 0
v -49.3499984741211 -8.39999961853027 0
v -51.4499969482422 -8.39999961853027 0
v -53.5499992370605 -8.39999961853027 0
v -45.1499977111816 -10.5 0
v -47.25 -10.5 0
v -49.3499984741211 -10.5 0
v -51.4499969482422 -10.5 0
v -45.1499977111816 -12.5999994277954 0
v -47.25 -12.5999994277954 0
v -49.3499984741211 -12.5999994277954 0
v -54.5999984741211 -12.5999994277954 0
v -56.6999969482422 -12.5999994277954 0
v -56.6999969482422 -10.5 0
v -54.5999984741211 -10.5 0
v -58.7999992370605 -12.5999994277954 0
v -58.7999992370605 -10.5 0
v -60.8999977111816 -12.5999994277954 0
v -60.8999977111816 -10.5 0
v -63 -12.5999994277954 0
v -63 -10.5 0
v -65.0999984741211 -12.5999994277954 0
v -65.0999984741211 -10.5 0
v -67.1999969482422 -12.5999994277954 0
v -67.1999969482422 -10.5 0
v -69.2999954223633 -12.5999994277954 0
v -69.2999954223633 -10.5 0
v -71.4000015258789 -12.5999994277954 0
v -71.4000015258789 -10.5 0
v -73.5 -12.5999994277954 0
v -73.5 -10.5 0
v -75.5999984741211 -12.5999994277954 0
v -75.5999984741211 -10.5 0
v -77.6999969482422 -12.5999994277954 0
v -77.6999969482422 -10.5 0
v -79.7999954223633 -12.5999994277954 0
v -79.7999954223633 -10.5 0
v -35.7000007629395 -14.6999998092651 0
v -37.7999992370605 -14.6999998092651 0
v -37.7999992370605 -12.5999994277954 0
v -35.7000007629395 -12.5999994277954 0
v -39.8999977111816 -14.6999998092651 0
v -39.8999977111816 -12.5999994277954 0
v -42 -14.6999998092651 0
v -42 -12.5999994277954 0
v -44.0999984741211 -14.6999998092651 0
v -44.0999984741211 -12.5999994277954 0
v -52.5 -14.6999998092651 0
v -54.5999984741211 -14.6999998092651 0
v -52.5 -12.5999994277954 0
v -56.6999969482422 -14.6999998092651 0
v -58.7999992370605 -14.6999998092651 0
v -60.8999977111816 -14.6999998092651 0
v -63 -14.6999998092651 0
v -65.0999984741211 -14.6999998092651 0
v -67.1999969482422 -14.6999998092651 0
v -69.2999954223633 -14.6999998092651 0
v -71.4000015258789 -14.6999998092651 0
v -73.5 -14.6999998092651 0
v -75.5999984741211 -14.6999998092651 0
v -77.6999969482422 -14.6999998092651 0
v -79.7999954223633 -14.6999998092651 0
v -12.5999994277954 -16.7999992370605 0
v -14.6999998092651 -16.7999992370605 0
v -14.6999998092651 -14.6999998092651 0
v -12.5999994277954 -14.6999998092651 0
v -16.7999992370605 -16.7999992370605 0
v -16.7999992370605 -14.6999998092651 0
v -18.8999996185303 -16.7999992370605 0
v -18.8999996185303 -14.6999998092651 0
v -21 -16.7999992370605 0
v -21 -14.6999998092651 0
v -23.1000003814697 -16.7999992370605 0
v -23.1000003814697 -14.6999998092651 0
v -25.1999988555908 -16.7999992370605 0
v -25.1999988555908 -14.6999998092651 0
v -27.2999992370605 -16.7999992370605 0
v -27.2999992370605 -14.6999998092651 0
v -29.3999996185303 -16.7999992370605 0
v -29.3999996185303 -14.6999998092651 0
v -50.3999977111816 -16.7999992370605 0
v -52.5 -16.7999992370605 0
v -50.3999977111816 -14.6999998092651 0
v -54.5999984741211 -16.7999992370605 0
v -56.6999969482422 -16.7999992370605 0
v -58.7999992370605 -16.7999992370605 0
v -60.8999977111816 -16.7999992370605 0
v -63 -16.7999992370605 0
v -65.0999984741211 -16.7999992370605 0
v -67.1999969482422 -16.7999992370605 0
v -69.2999954223633 -16.7999992370605 0
v -71.4000015258789 -16.7999992370605 0
v -73.5 -16.7999992370605 0
v -75.5999984741211 -16.7999992370605 0
v -77.6999969482422 -16.7999992370605 0
v -79.7999954223633 -16.7999992370605 0
v 0 -18.8999996185303 0
v -2.09999990463257 -18.8999996185303 0
v -2.09999990463257 -16.7999992370605 0
v 0 -16.7999992370605 0
v -4.19999980926514 -18.8999996185303 0
v -4.19999980926514 -16.7999992370605 0
v -6.29999971389771 -18.8999996185303 0
v -6.29999971389771 -16.7999992370605 0
v -8.39999961853027 -18.8999996185303 0
v -8.39999961853027 -16.7999992370605 0
v -10.5 -18.8999996185303 0
v -10.5 -16.7999992370605 0
v -12.5999994277954 -18.8999996185303 0
v -14.6999998092651 -18.8999996185303 0
v -16.7999992370605 -18.8999996185303 0
v -18.8999996185303 -18.8999996185303 0
v -21 -18.8999996185303 0
v -23.1000003814697 -18.8999996185303 0
v -25.1999988555908 -18.8999996185303 0
v -27.2999992370605 -18.8999996185303 0
v -29.3999996185303 -18.8999996185303 0
v -31.5 -18.8999996185303 0
v -31.5 -16.7999992370605 0
v -48.2999992370605 -18.8999996185303 0
v -50.3999977111816 -18.8999996185303 0
v -48.2999992370605 -16.7999992370605 0
v -52.5 -18.8999996185303 0
v -54.5999984741211 -18.8999996185303 0
v -56.6999969482422 -18.8999996185303 0
v -58.7999992370605 -18.8999996185303 0
v -60.8999977111816 -18.8999996185303 0
v -63 -18.8999996185303 0
v -65.0999984741211 -18.8999996185303 0
v -67.1999969482422 -18.8999996185303 0
v -69.2999954223633 -18.8999996185303 0
v -71.4000015258789 -18.8999996185303 0
v -73.5 -18.8999996185303 0
v -75.5999984741211 -18.8999996185303 0
v -77.6999969482422 -18.8999996185303 0
v -79.7999954223633 -18.8999996185303 0
v 0 -21 0
v -2.09999990463257 -21 0
v -4.19999980926514 -21 0
v -6.29999971389771 -21 0
v -8.39999961853027 -21 0
v -10.5 -21 0
v -12.5999994277954 -21 0
v -14.6999998092651 -21 0
v -16.7999992370605 -21 0
v -18.8999996185303 -21 0
v -21 -21 0
v -23.1000003814697 -21 0
v -25.1999988555908 -21 0
v -27.2999992370605 -21 0
v -29.3999996185303 -21 0
v -31.5 -21 0
v -33.5999984741211 -21 0
v -33.5999984741211 -18.8999996185303 0
v -35.7000007629395 -21 0
v -35.7000007629395 -18.8999996185303 0
v -37.7999992370605 -21 0
v -37.7999992370605 -18.8999996185303 0
v -39.8999977111816 -21 0
v -39.8999977111816 -18.8999996185303 0
v -42 -21 0
v -42 -18.8999996185303 0
v -44.0999984741211 -21 0
v -44.0999984741211 -18.8999996185303 0
v -46.2000007629395 -21 0
v -46.2000007629395 -18.8999996185303 0
v -48.2999992370605 -21 0
v -50.3999977111816 -21 0
v -52.5 -21 0
v -54.5999984741211 -21 0
v -56.6999969482422 -21 0
v -58.7999992370605 -21 0
v -60.8999977111816 -21 0
v -63 -21 0
v -65.0999984741211 -21 0
v -67.1999969482422 -21 0
v -69.2999954223633 -21 0
v -71.4000015258789 -21 0
v -73.5 -21 0
v -75.5999984741211 -21 0
v -77.6999969482422 -21 0
v -79.7999954223633 -21 0

# Texture Coorindates (Count = 92)
vt 0.5645752 0.2266846
vt 0.6326904 0.2266846
vt 0.6326904 0.2947998
vt 0.5645752 0.2947998
vt 0.6348877 0.8594971
vt 0.7030029 0.8594971
vt 0.7030029 0.9276123
vt 0.6348877 0.9276123
vt 0.6348877 0.7891846
vt 0.7030029 0.7891846
vt 0.7030029 0.8572998
vt 0.6348877 0.8572998
vt 0.5645752 0.7891846
vt 0.6326904 0.7891846
vt 0.6326904 0.8572998
vt 0.5645752 0.8572998
vt 0.4942627 0.7891846
vt 0.5623779 0.7891846
vt 0.5623779 0.8572998
vt 0.4942627 0.8572998
vt 0.0723877 0.7872314
vt 0.07214355 0.7188721
vt 0.1405029 0.7186279
vt 0.1407471 0.7869873
vt 0.1407471 0.7169189
vt 0.07214355 0.7169189
vt 0.07214355 0.6483154
vt 0.1407471 0.6483154
vt 0.4219971 0.7188721
vt 0.4217529 0.7872314
vt 0.3533936 0.7869873
vt 0.3536377 0.7186279
vt 0.1407471 0.7872314
vt 0.07214355 0.7872314
vt 0.07214355 0.7186279
vt 0.1407471 0.7186279
vt 0.3516846 0.7872314
vt 0.2830811 0.7872314
vt 0.2830811 0.7186279
vt 0.3516846 0.7186279
vt 0.4923096 0.7188721
vt 0.4920654 0.7872314
vt 0.4237061 0.7869873
vt 0.4239502 0.7186279
vt 0.4923096 0.7872314
vt 0.4237061 0.7872314
vt 0.4237061 0.7186279
vt 0.4923096 0.7186279
vt 0.2130127 0.7188721
vt 0.2811279 0.7188721
vt 0.2811279 0.7869873
vt 0.2130127 0.7869873
vt 0.0723877 0.7188721
vt 0.1405029 0.7188721
vt 0.1405029 0.7869873
vt 0.0723877 0.7869873
vt 0.3536377 0.5782471
vt 0.4217529 0.5782471
vt 0.4217529 0.6463623
vt 0.3536377 0.6463623
vt 0.4239502 0.5782471
vt 0.4920654 0.5782471
vt 0.4920654 0.6463623
vt 0.4239502 0.6463623
vt 0.2833252 0.7188721
vt 0.3514404 0.7188721
vt 0.3514404 0.7869873
vt 0.2833252 0.7869873
vt 0.0723877 0.6485596
vt 0.1405029 0.6485596
vt 0.1405029 0.7166748
vt 0.0723877 0.7166748
vt 0.4239502 0.7188721
vt 0.4920654 0.7188721
vt 0.4920654 0.7869873
vt 0.4239502 0.7869873
vt 0.3536377 0.7188721
vt 0.4217529 0.7188721
vt 0.4217529 0.7869873
vt 0.3536377 0.7869873
vt 0.1427002 0.7188721
vt 0.2108154 0.7188721
vt 0.2108154 0.7869873
vt 0.1427002 0.7869873
vt 0.9161377 0.2266846
vt 0.9842529 0.2266846
vt 0.9842529 0.2947998
vt 0.9161377 0.2947998
vt 0.002075195 0.7188721
vt 0.07019043 0.7188721
vt 0.07019043 0.7869873
vt 0.002075195 0.7869873

# Normal
vn 0 0 -1

# Groups (Count = 2)
g mesh_[00]_[00]
f  1/1/1  2/2/1  3/3/1  4/4/1 
f  5/1/1  6/2/1  7/3/1  8/4/1 
f  9/5/1  10/6/1  11/7/1  12/8/1 
f  13/9/1  14/10/1  15/11/1  16/12/1 
f  14/13/1  17/14/1  9/15/1  15/16/1 
f  17/17/1  18/18/1  10/19/1  9/20/1 
g mesh_[01]_[00]
f  19/21/1  20/22/1  21/23/1  22/24/1 
f  20/25/1  23/26/1  24/27/1  21/28/1 
f  23/25/1  25/26/1  26/27/1  24/28/1 
f  25/25/1  27/26/1  28/27/1  26/28/1 
f  27/25/1  29/26/1  30/27/1  28/28/1 
f  29/29/1  31/30/1  32/31/1  30/32/1 
f  31/33/1  33/34/1  34/35/1  32/36/1 
f  33/33/1  35/34/1  36/35/1  34/36/1 
f  35/33/1  37/34/1  38/35/1  36/36/1 
f  37/33/1  39/34/1  40/35/1  38/36/1 
f  39/33/1  41/34/1  42/35/1  40/36/1 
f  41/33/1  43/34/1  44/35/1  42/36/1 
f  43/33/1  45/34/1  46/35/1  44/36/1 
f  45/33/1  47/34/1  48/35/1  46/36/1 
f  47/33/1  49/34/1  50/35/1  48/36/1 
f  49/33/1  51/34/1  52/35/1  50/36/1 
f  53/21/1  54/22/1  20/23/1  19/24/1 
f  54/25/1  55/26/1  23/27/1  20/28/1 
f  55/25/1  56/26/1  25/27/1  23/28/1 
f  56/25/1  57/26/1  27/27/1  25/28/1 
f  57/37/1  58/38/1  29/39/1  27/40/1 
f  58/41/1  59/42/1  31/43/1  29/44/1 
f  60/21/1  61/22/1  54/23/1  53/24/1 
f  61/25/1  62/26/1  55/27/1  54/28/1 
f  62/25/1  63/26/1  56/27/1  55/28/1 
f  63/37/1  64/38/1  57/39/1  56/40/1 
f  64/41/1  65/42/1  58/43/1  57/44/1 
f  66/21/1  67/22/1  61/23/1  60/24/1 
f  67/25/1  68/26/1  62/27/1  61/28/1 
f  68/37/1  69/38/1  63/39/1  62/40/1 
f  69/41/1  70/42/1  64/43/1  63/44/1 
f  71/21/1  72/22/1  67/23/1  66/24/1 
f  72/37/1  73/38/1  68/39/1  67/40/1 
f  73/41/1  74/42/1  69/43/1  68/44/1 
f  75/45/1  76/46/1  72/47/1  71/48/1 
f  76/41/1  77/42/1  73/43/1  72/44/1 
f  78/49/1  79/50/1  80/51/1  81/52/1 
f  79/53/1  82/54/1  83/55/1  80/56/1 
f  82/53/1  84/54/1  85/55/1  83/56/1 
f  84/53/1  86/54/1  87/55/1  85/56/1 
f  86/53/1  88/54/1  89/55/1  87/56/1 
f  88/53/1  90/54/1  91/55/1  89/56/1 
f  90/53/1  92/54/1  93/55/1  91/56/1 
f  92/53/1  94/54/1  95/55/1  93/56/1 
f  94/53/1  96/54/1  97/55/1  95/56/1 
f  96/53/1  98/54/1  99/55/1  97/56/1 
f  98/53/1  100/54/1  101/55/1  99/56/1 
f  100/53/1  102/54/1  103/55/1  101/56/1 
f  104/57/1  105/58/1  106/59/1  107/60/1 
f  105/53/1  108/54/1  109/55/1  106/56/1 
f  108/53/1  110/54/1  111/55/1  109/56/1 
f  110/61/1  112/62/1  113/63/1  111/64/1 
f  114/49/1  115/50/1  78/51/1  116/52/1 
f  115/65/1  117/66/1  79/67/1  78/68/1 
f  117/69/1  118/70/1  82/71/1  79/72/1 
f  118/69/1  119/70/1  84/71/1  82/72/1 
f  119/69/1  120/70/1  86/71/1  84/72/1 
f  120/69/1  121/70/1  88/71/1  86/72/1 
f  121/69/1  122/70/1  90/71/1  88/72/1 
f  122/69/1  123/70/1  92/71/1  90/72/1 
f  123/69/1  124/70/1  94/71/1  92/72/1 
f  124/69/1  125/70/1  96/71/1  94/72/1 
f  125/69/1  126/70/1  98/71/1  96/72/1 
f  126/69/1  127/70/1  100/71/1  98/72/1 
f  127/69/1  128/70/1  102/71/1  100/72/1 
f  129/49/1  130/50/1  131/51/1  132/52/1 
f  130/53/1  133/54/1  134/55/1  131/56/1 
f  133/53/1  135/54/1  136/55/1  134/56/1 
f  135/53/1  137/54/1  138/55/1  136/56/1 
f  137/53/1  139/54/1  140/55/1  138/56/1 
f  139/53/1  141/54/1  142/55/1  140/56/1 
f  141/53/1  143/54/1  144/55/1  142/56/1 
f  143/73/1  145/74/1  146/75/1  144/76/1 
f  147/49/1  148/50/1  114/51/1  149/52/1 
f  148/65/1  150/66/1  115/67/1  114/68/1 
f  150/69/1  151/70/1  117/71/1  115/72/1 
f  151/69/1  152/70/1  118/71/1  117/72/1 
f  152/69/1  153/70/1  119/71/1  118/72/1 
f  153/69/1  154/70/1  120/71/1  119/72/1 
f  154/69/1  155/70/1  121/71/1  120/72/1 
f  155/69/1  156/70/1  122/71/1  121/72/1 
f  156/69/1  157/70/1  123/71/1  122/72/1 
f  157/69/1  158/70/1  124/71/1  123/72/1 
f  158/69/1  159/70/1  125/71/1  124/72/1 
f  159/69/1  160/70/1  126/71/1  125/72/1 
f  160/69/1  161/70/1  127/71/1  126/72/1 
f  161/69/1  162/70/1  128/71/1  127/72/1 
f  163/53/1  164/54/1  165/55/1  166/56/1 
f  164/53/1  167/54/1  168/55/1  165/56/1 
f  167/53/1  169/54/1  170/55/1  168/56/1 
f  169/53/1  171/54/1  172/55/1  170/56/1 
f  171/53/1  173/54/1  174/55/1  172/56/1 
f  173/53/1  175/54/1  129/55/1  174/56/1 
f  175/65/1  176/66/1  130/67/1  129/68/1 
f  176/69/1  177/70/1  133/71/1  130/72/1 
f  177/69/1  178/70/1  135/71/1  133/72/1 
f  178/69/1  179/70/1  137/71/1  135/72/1 
f  179/69/1  180/70/1  139/71/1  137/72/1 
f  180/69/1  181/70/1  141/71/1  139/72/1 
f  181/69/1  182/70/1  143/71/1  141/72/1 
f  182/77/1  183/78/1  145/79/1  143/80/1 
f  183/73/1  184/74/1  185/75/1  145/76/1 
f  186/49/1  187/50/1  147/51/1  188/52/1 
f  187/65/1  189/66/1  148/67/1  147/68/1 
f  189/69/1  190/70/1  150/71/1  148/72/1 
f  190/69/1  191/70/1  151/71/1  150/72/1 
f  191/69/1  192/70/1  152/71/1  151/72/1 
f  192/69/1  193/70/1  153/71/1  152/72/1 
f  193/69/1  194/70/1  154/71/1  153/72/1 
f  194/69/1  195/70/1  155/71/1  154/72/1 
f  195/69/1  196/70/1  156/71/1  155/72/1 
f  196/69/1  197/70/1  157/71/1  156/72/1 
f  197/69/1  198/70/1  158/71/1  157/72/1 
f  198/69/1  199/70/1  159/71/1  158/72/1 
f  199/69/1  200/70/1  160/71/1  159/72/1 
f  200/69/1  201/70/1  161/71/1  160/72/1 
f  201/69/1  202/70/1  162/71/1  161/72/1 
f  203/69/1  204/70/1  164/71/1  163/72/1 
f  204/69/1  205/70/1  167/71/1  164/72/1 
f  205/69/1  206/70/1  169/71/1  167/72/1 
f  206/69/1  207/70/1  171/71/1  169/72/1 
f  207/69/1  208/70/1  173/71/1  171/72/1 
f  208/69/1  209/70/1  175/71/1  173/72/1 
f  209/69/1  210/70/1  176/71/1  175/72/1 
f  210/69/1  211/70/1  177/71/1  176/72/1 
f  211/69/1  212/70/1  178/71/1  177/72/1 
f  212/69/1  213/70/1  179/71/1  178/72/1 
f  213/69/1  214/70/1  180/71/1  179/72/1 
f  214/69/1  215/70/1  181/71/1  180/72/1 
f  215/69/1  216/70/1  182/71/1  181/72/1 
f  216/69/1  217/70/1  183/71/1  182/72/1 
f  217/77/1  218/78/1  184/79/1  183/80/1 
f  218/81/1  219/82/1  220/83/1  184/84/1 
f  219/85/1  221/86/1  222/87/1  220/88/1 
f  221/85/1  223/86/1  224/87/1  222/88/1 
f  223/85/1  225/86/1  226/87/1  224/88/1 
f  225/85/1  227/86/1  228/87/1  226/88/1 
f  227/85/1  229/86/1  230/87/1  228/88/1 
f  229/85/1  231/86/1  232/87/1  230/88/1 
f  231/89/1  233/90/1  186/91/1  232/92/1 
f  233/65/1  234/66/1  187/67/1  186/68/1 
f  234/69/1  235/70/1  189/71/1  187/72/1 
f  235/69/1  236/70/1  190/71/1  189/72/1 
f  236/69/1  237/70/1  191/71/1  190/72/1 
f  237/69/1  238/70/1  192/71/1  191/72/1 
f  238/69/1  239/70/1  193/71/1  192/72/1 
f  239/69/1  240/70/1  194/71/1  193/72/1 
f  240/69/1  241/70/1  195/71/1  194/72/1 
f  241/69/1  242/70/1  196/71/1  195/72/1 
f  242/69/1  243/70/1  197/71/1  196/72/1 
f  243/69/1  244/70/1  198/71/1  197/72/1 
f  244/69/1  245/70/1  199/71/1  198/72/1 
f  245/69/1  246/70/1  200/71/1  199/72/1 
f  246/69/1  247/70/1  201/71/1  200/72/1 
f  247/69/1  248/70/1  202/71/1  201/72/1 
