# Wavefront OBJ file automatically generated by Tiled2Unity

# Vertices (Count = 135)
v -3.5 -7 0
v -7 -7 0
v -7 -3.5 0
v -3.5 -3.5 0
v 0 -10.5 0
v -3.5 -10.5 0
v 0 -7 0
v -7 -10.5 0
v 0 -14 0
v -3.5 -14 0
v -7 -14 0
v -10.5 -14 0
v -10.5 -10.5 0
v 0 -17.5 0
v -3.5 -17.5 0
v -7 -17.5 0
v -10.5 -17.5 0
v -14 -17.5 0
v -14 -14 0
v 0 -21 0
v -3.5 -21 0
v -7 -21 0
v -10.5 -21 0
v -14 -21 0
v -17.5 -21 0
v -17.5 -17.5 0
v -28 -22.75 0
v -31.5 -22.75 0
v -31.5 -19.25 0
v -28 -19.25 0
v -35 -22.75 0
v -35 -19.25 0
v -38.5 -22.75 0
v -38.5 -19.25 0
v -42 -22.75 0
v -42 -19.25 0
v -45.5 -22.75 0
v -45.5 -19.25 0
v -49 -22.75 0
v -49 -19.25 0
v 0 -24.5 0
v -3.5 -24.5 0
v -7 -24.5 0
v -10.5 -24.5 0
v -14 -24.5 0
v -17.5 -24.5 0
v -21 -24.5 0
v -21 -21 0
v -73.5 -24.5 0
v -77 -24.5 0
v -77 -21 0
v -73.5 -21 0
v 0 -28 0
v -3.5 -28 0
v -7 -28 0
v -10.5 -28 0
v -14 -28 0
v -17.5 -28 0
v -21 -28 0
v -24.5 -28 0
v -24.5 -24.5 0
v -28 -28 0
v -28 -24.5 0
v -31.5 -28 0
v -31.5 -24.5 0
v -35 -28 0
v -35 -24.5 0
v -38.5 -28 0
v -38.5 -24.5 0
v -42 -28 0
v -42 -24.5 0
v -45.5 -28 0
v -45.5 -24.5 0
v -49 -28 0
v -49 -24.5 0
v -52.5 -28 0
v -52.5 -24.5 0
v -56 -28 0
v -56 -24.5 0
v -59.5 -28 0
v -59.5 -24.5 0
v -63 -28 0
v -63 -24.5 0
v -66.5 -28 0
v -66.5 -24.5 0
v -70 -28 0
v -70 -24.5 0
v -73.5 -28 0
v -77 -28 0
v 0 -31.5 0
v -3.5 -31.5 0
v -7 -31.5 0
v -10.5 -31.5 0
v -14 -31.5 0
v -17.5 -31.5 0
v -21 -31.5 0
v -24.5 -31.5 0
v -28 -31.5 0
v -31.5 -31.5 0
v -35 -31.5 0
v -38.5 -31.5 0
v -42 -31.5 0
v -45.5 -31.5 0
v -49 -31.5 0
v -52.5 -31.5 0
v -56 -31.5 0
v -59.5 -31.5 0
v -63 -31.5 0
v -66.5 -31.5 0
v -70 -31.5 0
v -73.5 -31.5 0
v -77 -31.5 0
v 0 -35 0
v -3.5 -35 0
v -7 -35 0
v -10.5 -35 0
v -14 -35 0
v -17.5 -35 0
v -21 -35 0
v -24.5 -35 0
v -28 -35 0
v -31.5 -35 0
v -35 -35 0
v -38.5 -35 0
v -42 -35 0
v -45.5 -35 0
v -49 -35 0
v -52.5 -35 0
v -56 -35 0
v -59.5 -35 0
v -63 -35 0
v -66.5 -35 0
v -70 -35 0
v -73.5 -35 0
v -77 -35 0

# Texture Coorindates (Count = 48)
vt 0.7052002 0.2969971
vt 0.7733154 0.2969971
vt 0.7733154 0.3651123
vt 0.7052002 0.3651123
vt 0.5645752 0.1563721
vt 0.6326904 0.1563721
vt 0.6326904 0.2244873
vt 0.5645752 0.2244873
vt 0.6348877 0.2969971
vt 0.7030029 0.2969971
vt 0.7030029 0.3651123
vt 0.6348877 0.3651123
vt 0.0723877 0.7188721
vt 0.1405029 0.7188721
vt 0.1405029 0.7869873
vt 0.0723877 0.7869873
vt 0.4239502 0.7188721
vt 0.4920654 0.7188721
vt 0.4920654 0.7869873
vt 0.4239502 0.7869873
vt 0.0723877 0.6485596
vt 0.1405029 0.6485596
vt 0.1405029 0.7166748
vt 0.0723877 0.7166748
vt 0.3536377 0.7188721
vt 0.4217529 0.7188721
vt 0.4217529 0.7869873
vt 0.3536377 0.7869873
vt 0.3536377 0.5782471
vt 0.4217529 0.5782471
vt 0.4217529 0.6463623
vt 0.3536377 0.6463623
vt 0.4239502 0.5782471
vt 0.4920654 0.5782471
vt 0.4920654 0.6463623
vt 0.4239502 0.6463623
vt 0.6348877 0.1563721
vt 0.7030029 0.1563721
vt 0.7030029 0.2244873
vt 0.6348877 0.2244873
vt 0.9161377 0.2266846
vt 0.9842529 0.2266846
vt 0.9842529 0.2947998
vt 0.9161377 0.2947998
vt 0.8458252 0.1563721
vt 0.9139404 0.1563721
vt 0.9139404 0.2244873
vt 0.8458252 0.2244873

# Normal
vn 0 0 -1

# Groups (Count = 1)
g mesh_[00]_[00]
f  1/1/1  2/2/1  3/3/1  4/4/1 
f  5/5/1  6/6/1  1/7/1  7/8/1 
f  6/9/1  8/10/1  2/11/1  1/12/1 
f  9/13/1  10/14/1  6/15/1  5/16/1 
f  10/13/1  11/14/1  8/15/1  6/16/1 
f  11/17/1  12/18/1  13/19/1  8/20/1 
f  14/21/1  15/22/1  10/23/1  9/24/1 
f  15/21/1  16/22/1  11/23/1  10/24/1 
f  16/25/1  17/26/1  12/27/1  11/28/1 
f  17/17/1  18/18/1  19/19/1  12/20/1 
f  20/21/1  21/22/1  15/23/1  14/24/1 
f  21/21/1  22/22/1  16/23/1  15/24/1 
f  22/21/1  23/22/1  17/23/1  16/24/1 
f  23/25/1  24/26/1  18/27/1  17/28/1 
f  24/17/1  25/18/1  26/19/1  18/20/1 
f  27/29/1  28/30/1  29/31/1  30/32/1 
f  28/13/1  31/14/1  32/15/1  29/16/1 
f  31/13/1  33/14/1  34/15/1  32/16/1 
f  33/13/1  35/14/1  36/15/1  34/16/1 
f  35/13/1  37/14/1  38/15/1  36/16/1 
f  37/33/1  39/34/1  40/35/1  38/36/1 
f  41/21/1  42/22/1  21/23/1  20/24/1 
f  42/21/1  43/22/1  22/23/1  21/24/1 
f  43/21/1  44/22/1  23/23/1  22/24/1 
f  44/21/1  45/22/1  24/23/1  23/24/1 
f  45/25/1  46/26/1  25/27/1  24/28/1 
f  46/17/1  47/18/1  48/19/1  25/20/1 
f  49/37/1  50/38/1  51/39/1  52/40/1 
f  53/21/1  54/22/1  42/23/1  41/24/1 
f  54/21/1  55/22/1  43/23/1  42/24/1 
f  55/21/1  56/22/1  44/23/1  43/24/1 
f  56/21/1  57/22/1  45/23/1  44/24/1 
f  57/21/1  58/22/1  46/23/1  45/24/1 
f  58/25/1  59/26/1  47/27/1  46/28/1 
f  59/13/1  60/14/1  61/15/1  47/16/1 
f  60/41/1  62/42/1  63/43/1  61/44/1 
f  62/41/1  64/42/1  65/43/1  63/44/1 
f  64/41/1  66/42/1  67/43/1  65/44/1 
f  66/41/1  68/42/1  69/43/1  67/44/1 
f  68/41/1  70/42/1  71/43/1  69/44/1 
f  70/41/1  72/42/1  73/43/1  71/44/1 
f  72/41/1  74/42/1  75/43/1  73/44/1 
f  74/41/1  76/42/1  77/43/1  75/44/1 
f  76/13/1  78/14/1  79/15/1  77/16/1 
f  78/13/1  80/14/1  81/15/1  79/16/1 
f  80/13/1  82/14/1  83/15/1  81/16/1 
f  82/13/1  84/14/1  85/15/1  83/16/1 
f  84/13/1  86/14/1  87/15/1  85/16/1 
f  86/13/1  88/14/1  49/15/1  87/16/1 
f  88/13/1  89/14/1  50/15/1  49/16/1 
f  90/21/1  91/22/1  54/23/1  53/24/1 
f  91/21/1  92/22/1  55/23/1  54/24/1 
f  92/21/1  93/22/1  56/23/1  55/24/1 
f  93/21/1  94/22/1  57/23/1  56/24/1 
f  94/21/1  95/22/1  58/23/1  57/24/1 
f  95/21/1  96/22/1  59/23/1  58/24/1 
f  96/21/1  97/22/1  60/23/1  59/24/1 
f  97/45/1  98/46/1  62/47/1  60/48/1 
f  98/45/1  99/46/1  64/47/1  62/48/1 
f  99/45/1  100/46/1  66/47/1  64/48/1 
f  100/45/1  101/46/1  68/47/1  66/48/1 
f  101/45/1  102/46/1  70/47/1  68/48/1 
f  102/45/1  103/46/1  72/47/1  70/48/1 
f  103/45/1  104/46/1  74/47/1  72/48/1 
f  104/45/1  105/46/1  76/47/1  74/48/1 
f  105/21/1  106/22/1  78/23/1  76/24/1 
f  106/21/1  107/22/1  80/23/1  78/24/1 
f  107/21/1  108/22/1  82/23/1  80/24/1 
f  108/21/1  109/22/1  84/23/1  82/24/1 
f  109/21/1  110/22/1  86/23/1  84/24/1 
f  110/21/1  111/22/1  88/23/1  86/24/1 
f  111/21/1  112/22/1  89/23/1  88/24/1 
f  113/21/1  114/22/1  91/23/1  90/24/1 
f  114/21/1  115/22/1  92/23/1  91/24/1 
f  115/21/1  116/22/1  93/23/1  92/24/1 
f  116/21/1  117/22/1  94/23/1  93/24/1 
f  117/21/1  118/22/1  95/23/1  94/24/1 
f  118/21/1  119/22/1  96/23/1  95/24/1 
f  119/21/1  120/22/1  97/23/1  96/24/1 
f  120/45/1  121/46/1  98/47/1  97/48/1 
f  121/45/1  122/46/1  99/47/1  98/48/1 
f  122/45/1  123/46/1  100/47/1  99/48/1 
f  123/45/1  124/46/1  101/47/1  100/48/1 
f  124/45/1  125/46/1  102/47/1  101/48/1 
f  125/45/1  126/46/1  103/47/1  102/48/1 
f  126/45/1  127/46/1  104/47/1  103/48/1 
f  127/45/1  128/46/1  105/47/1  104/48/1 
f  128/21/1  129/22/1  106/23/1  105/24/1 
f  129/21/1  130/22/1  107/23/1  106/24/1 
f  130/21/1  131/22/1  108/23/1  107/24/1 
f  131/21/1  132/22/1  109/23/1  108/24/1 
f  132/21/1  133/22/1  110/23/1  109/24/1 
f  133/21/1  134/22/1  111/23/1  110/24/1 
f  134/21/1  135/22/1  112/23/1  111/24/1 
